<svg width="198" height="37" viewBox="0 0 198 37" fill="none" xmlns="http://www.w3.org/2000/svg">
<path d="M28.2799 15.13C30.9999 15.13 32.9999 15.68 34.2799 16.78C35.5799 17.88 36.2299 19.32 36.2299 21.1C36.2299 21.7 36.1499 22.37 35.9899 23.11C35.6099 24.75 34.8999 26.19 33.8599 27.43C32.8199 28.65 31.5399 29.6 30.0199 30.28C28.5199 30.94 26.8899 31.27 25.1299 31.27C22.3499 31.27 20.2899 30.72 18.9499 29.62C17.6299 28.5 16.9699 27.02 16.9699 25.18C16.9699 24.56 17.0499 23.87 17.2099 23.11C17.5899 21.55 18.3099 20.17 19.3699 18.97C20.4499 17.75 21.7599 16.81 23.2999 16.15C24.8599 15.47 26.5199 15.13 28.2799 15.13ZM28.1899 17.8C27.7699 17.8 27.3199 18.18 26.8399 18.94C26.3799 19.68 25.8299 21.09 25.1899 23.17C24.5499 25.25 24.2299 26.71 24.2299 27.55C24.2299 27.99 24.2999 28.29 24.4399 28.45C24.5799 28.59 24.7699 28.66 25.0099 28.66C25.4299 28.7 25.8599 28.34 26.2999 27.58C26.7599 26.82 27.3299 25.34 28.0099 23.14C28.6299 21.2 28.9399 19.79 28.9399 18.91C28.9399 18.49 28.8699 18.2 28.7299 18.04C28.6099 17.88 28.4299 17.8 28.1899 17.8ZM54.1615 26.86C54.1215 26.94 54.1015 27.06 54.1015 27.22C54.1015 27.36 54.1315 27.47 54.1915 27.55C54.2715 27.63 54.3715 27.67 54.4915 27.67C54.7315 27.67 54.9315 27.57 55.0915 27.37C55.2715 27.15 55.3915 27.04 55.4515 27.04C55.5515 27.04 55.6315 27.11 55.6915 27.25C55.7515 27.37 55.7815 27.52 55.7815 27.7C55.8015 28.28 55.6115 28.85 55.2115 29.41C54.8115 29.95 54.2215 30.4 53.4415 30.76C52.6815 31.1 51.7615 31.27 50.6815 31.27C49.3615 31.27 48.3115 30.97 47.5315 30.37C46.7515 29.75 46.3515 28.93 46.3315 27.91C46.3315 27.17 46.5115 26.34 46.8715 25.42L48.5215 21.1C48.6215 20.84 48.6715 20.63 48.6715 20.47C48.6715 20.21 48.5815 20.01 48.4015 19.87C48.2415 19.71 48.0415 19.63 47.8015 19.63C47.4215 19.63 47.0315 19.81 46.6315 20.17C46.2515 20.51 45.9415 21.07 45.7015 21.85V21.79L43.8115 27.88C43.7515 28.12 43.7215 28.33 43.7215 28.51C43.7215 28.77 43.7715 28.98 43.8715 29.14C43.9715 29.28 44.1115 29.42 44.2915 29.56C44.4315 29.7 44.5315 29.82 44.5915 29.92C44.6515 30 44.6615 30.11 44.6215 30.25C44.5215 30.51 44.3215 30.7 44.0215 30.82C43.7215 30.94 43.2615 31 42.6415 31H35.8015C35.2815 31 34.9015 30.92 34.6615 30.76C34.4215 30.58 34.3415 30.35 34.4215 30.07C34.5015 29.83 34.7115 29.62 35.0515 29.44C35.3515 29.28 35.6015 29.09 35.8015 28.87C36.0015 28.65 36.1715 28.3 36.3115 27.82L40.8715 12.85C40.9315 12.67 40.9615 12.52 40.9615 12.4C40.9615 12.18 40.9015 12 40.7815 11.86C40.6815 11.72 40.5415 11.58 40.3615 11.44C40.1615 11.28 40.0115 11.14 39.9115 11.02C39.8315 10.9 39.8215 10.74 39.8815 10.54C40.0015 10.08 40.6315 9.68 41.7715 9.34C42.9115 9 44.1015 8.83 45.3415 8.83C46.5015 8.83 47.3515 9.05 47.8915 9.49C48.4515 9.93 48.7315 10.53 48.7315 11.29C48.7315 11.73 48.6615 12.16 48.5215 12.58L46.9015 17.86C47.6815 16.84 48.5015 16.13 49.3615 15.73C50.2415 15.33 51.1915 15.13 52.2115 15.13C53.4315 15.13 54.4115 15.5 55.1515 16.24C55.9115 16.98 56.2915 17.94 56.2915 19.12C56.2915 19.74 56.1915 20.35 55.9915 20.95L54.1615 26.86ZM85.6003 26.86C85.5603 26.94 85.5403 27.06 85.5403 27.22C85.5403 27.36 85.5703 27.47 85.6303 27.55C85.7103 27.63 85.8103 27.67 85.9303 27.67C86.1703 27.67 86.3703 27.57 86.5303 27.37C86.7103 27.15 86.8303 27.04 86.8903 27.04C86.9903 27.04 87.0703 27.11 87.1303 27.25C87.1903 27.37 87.2203 27.52 87.2203 27.7C87.2403 28.28 87.0503 28.85 86.6503 29.41C86.2503 29.95 85.6603 30.4 84.8803 30.76C84.1203 31.1 83.2003 31.27 82.1203 31.27C80.8003 31.27 79.7503 30.97 78.9703 30.37C78.1903 29.75 77.7903 28.93 77.7703 27.91C77.7703 27.17 77.9503 26.34 78.3103 25.42L79.9603 21.1C80.0603 20.84 80.1103 20.63 80.1103 20.47C80.1103 20.21 80.0203 20.01 79.8403 19.87C79.6803 19.71 79.4803 19.63 79.2403 19.63C78.9003 19.63 78.5503 19.78 78.1903 20.08C77.8303 20.38 77.5103 20.85 77.2303 21.49L75.5803 26.86C75.5403 26.94 75.5203 27.06 75.5203 27.22C75.5203 27.36 75.5503 27.47 75.6103 27.55C75.6903 27.63 75.7903 27.67 75.9103 27.67C76.1503 27.67 76.3503 27.57 76.5103 27.37C76.6903 27.15 76.8103 27.04 76.8703 27.04C76.9703 27.04 77.0503 27.11 77.1103 27.25C77.1703 27.37 77.2003 27.52 77.2003 27.7C77.2203 28.28 77.0303 28.85 76.6303 29.41C76.2303 29.95 75.6403 30.4 74.8603 30.76C74.1003 31.1 73.1803 31.27 72.1003 31.27C70.7803 31.27 69.7303 30.97 68.9503 30.37C68.1703 29.75 67.7703 28.93 67.7503 27.91C67.7503 27.17 67.9303 26.34 68.2903 25.42L69.9403 21.1C70.0403 20.84 70.0903 20.63 70.0903 20.47C70.0903 20.21 70.0003 20.01 69.8203 19.87C69.6603 19.71 69.4603 19.63 69.2203 19.63C68.8803 19.63 68.5303 19.78 68.1703 20.08C67.8103 20.36 67.5103 20.82 67.2703 21.46L65.2903 27.88C65.2103 28.1 65.1703 28.31 65.1703 28.51C65.1703 28.75 65.2203 28.95 65.3203 29.11C65.4203 29.25 65.5603 29.4 65.7403 29.56C65.8803 29.68 65.9803 29.79 66.0403 29.89C66.1003 29.99 66.1103 30.11 66.0703 30.25C65.9903 30.51 65.8003 30.7 65.5003 30.82C65.2003 30.94 64.7303 31 64.0903 31H57.2503C56.7303 31 56.3603 30.92 56.1403 30.76C55.9003 30.58 55.8103 30.35 55.8703 30.07C55.9503 29.83 56.1603 29.62 56.5003 29.44C56.8003 29.28 57.0503 29.09 57.2503 28.87C57.4503 28.65 57.6203 28.3 57.7603 27.82L60.4303 19.15C60.4703 19.05 60.4903 18.91 60.4903 18.73C60.4903 18.51 60.4403 18.34 60.3403 18.22C60.2603 18.1 60.1203 17.95 59.9203 17.77C59.7203 17.61 59.5803 17.47 59.5003 17.35C59.4203 17.23 59.4103 17.07 59.4703 16.87C59.5903 16.41 60.2203 16.01 61.3603 15.67C62.5003 15.31 63.6903 15.13 64.9303 15.13C65.9103 15.13 66.6803 15.4 67.2403 15.94C67.8203 16.48 68.1003 17.22 68.0803 18.16C68.9003 17.02 69.7603 16.23 70.6603 15.79C71.5803 15.35 72.5703 15.13 73.6303 15.13C74.7903 15.13 75.7303 15.47 76.4503 16.15C77.1903 16.81 77.6003 17.68 77.6803 18.76C78.5403 17.4 79.4603 16.46 80.4403 15.94C81.4203 15.4 82.4903 15.13 83.6503 15.13C84.8703 15.13 85.8503 15.5 86.5903 16.24C87.3503 16.98 87.7303 17.94 87.7303 19.12C87.7303 19.74 87.6303 20.35 87.4303 20.95L85.6003 26.86ZM104.113 15.13C104.993 15.13 105.693 15.49 106.213 16.21C106.753 16.91 107.023 17.87 107.023 19.09C107.023 20.15 106.833 21.29 106.453 22.51C105.713 24.97 104.523 27.29 102.883 29.47C101.263 31.65 99.3929 33.4 97.2729 34.72C95.1729 36.04 93.0729 36.7 90.9729 36.7C89.9329 36.7 89.0329 36.52 88.2729 36.16C87.5329 35.8 86.9729 35.32 86.5929 34.72C86.1929 34.12 85.9929 33.48 85.9929 32.8C85.9929 32.5 86.0429 32.17 86.1429 31.81C86.3229 31.25 86.6229 30.82 87.0429 30.52C87.4629 30.22 87.9629 30.07 88.5429 30.07C89.4629 30.07 90.2129 30.38 90.7929 31C91.3929 31.64 91.7729 32.51 91.9329 33.61C93.2129 33.55 94.3929 33 95.4729 31.96C94.4529 31.78 93.6929 31.44 93.1929 30.94C92.7129 30.42 92.3829 29.62 92.2029 28.54L91.0029 21.19C90.9429 20.81 90.8529 20.55 90.7329 20.41C90.6329 20.25 90.4929 20.17 90.3129 20.17C90.1729 20.17 90.0029 20.24 89.8029 20.38C89.6229 20.52 89.4929 20.59 89.4129 20.59C89.2529 20.59 89.1729 20.42 89.1729 20.08C89.1729 19.8 89.2229 19.5 89.3229 19.18C89.6829 18.04 90.3529 17.08 91.3329 16.3C92.3129 15.5 93.4529 15.1 94.7529 15.1C96.0329 15.1 96.9729 15.48 97.5729 16.24C98.1929 17 98.5929 18.17 98.7729 19.75L99.6729 26.35C99.7329 26.85 99.9129 27.1 100.213 27.1C100.573 27.1 100.993 26.78 101.473 26.14C101.953 25.48 102.423 24.55 102.883 23.35C102.283 22.81 101.823 22.19 101.503 21.49C101.183 20.79 101.023 20.04 101.023 19.24C101.023 18.62 101.103 18.06 101.263 17.56C101.503 16.76 101.873 16.16 102.373 15.76C102.893 15.34 103.473 15.13 104.113 15.13ZM119.056 8.83C121.196 8.83 122.796 9.16 123.856 9.82C124.936 10.46 125.476 11.25 125.476 12.19C125.476 12.95 125.156 13.54 124.516 13.96C123.896 14.36 123.076 14.56 122.056 14.56C121.116 14.56 120.386 14.33 119.866 13.87C119.346 13.41 119.086 12.84 119.086 12.16C119.086 11.74 119.216 11.3 119.476 10.84C118.876 10.84 118.376 10.99 117.976 11.29C117.576 11.57 117.266 12.06 117.046 12.76C116.926 13.2 116.866 13.61 116.866 13.99C116.866 14.47 116.946 14.85 117.106 15.13C117.286 15.39 117.536 15.52 117.856 15.52H119.626C120.666 15.52 121.186 15.84 121.186 16.48C121.186 16.56 121.166 16.68 121.126 16.84C121.006 17.28 120.756 17.61 120.376 17.83C120.016 18.05 119.466 18.16 118.726 18.16H117.826L114.856 27.88C114.796 28.12 114.766 28.33 114.766 28.51C114.766 28.77 114.816 28.98 114.916 29.14C115.016 29.28 115.156 29.42 115.336 29.56C115.476 29.7 115.576 29.82 115.636 29.92C115.696 30 115.706 30.11 115.666 30.25C115.566 30.51 115.366 30.7 115.066 30.82C114.766 30.94 114.306 31 113.686 31H106.846C106.326 31 105.946 30.92 105.706 30.76C105.466 30.58 105.386 30.35 105.466 30.07C105.546 29.83 105.756 29.62 106.096 29.44C106.396 29.28 106.646 29.09 106.846 28.87C107.046 28.65 107.216 28.3 107.356 27.82L109.696 20.14C109.796 19.84 109.846 19.53 109.846 19.21C109.846 18.81 109.756 18.5 109.576 18.28C109.416 18.04 109.166 17.78 108.826 17.5C108.606 17.32 108.436 17.17 108.316 17.05C108.216 16.91 108.166 16.75 108.166 16.57C108.146 16.19 108.276 15.92 108.556 15.76C108.856 15.6 109.416 15.52 110.236 15.52H110.986C110.846 15.02 110.776 14.52 110.776 14.02C110.776 13.52 110.866 13 111.046 12.46C111.426 11.44 112.236 10.58 113.476 9.88C114.736 9.18 116.596 8.83 119.056 8.83ZM130.907 15.13C133.627 15.13 135.627 15.68 136.907 16.78C138.207 17.88 138.857 19.32 138.857 21.1C138.857 21.7 138.777 22.37 138.617 23.11C138.237 24.75 137.527 26.19 136.487 27.43C135.447 28.65 134.167 29.6 132.647 30.28C131.147 30.94 129.517 31.27 127.757 31.27C124.977 31.27 122.917 30.72 121.577 29.62C120.257 28.5 119.597 27.02 119.597 25.18C119.597 24.56 119.677 23.87 119.837 23.11C120.217 21.55 120.937 20.17 121.997 18.97C123.077 17.75 124.387 16.81 125.927 16.15C127.487 15.47 129.147 15.13 130.907 15.13ZM130.817 17.8C130.397 17.8 129.947 18.18 129.467 18.94C129.007 19.68 128.457 21.09 127.817 23.17C127.177 25.25 126.857 26.71 126.857 27.55C126.857 27.99 126.927 28.29 127.067 28.45C127.207 28.59 127.397 28.66 127.637 28.66C128.057 28.7 128.487 28.34 128.927 27.58C129.387 26.82 129.957 25.34 130.637 23.14C131.257 21.2 131.567 19.79 131.567 18.91C131.567 18.49 131.497 18.2 131.357 18.04C131.237 17.88 131.057 17.8 130.817 17.8ZM150.594 15.13C153.314 15.13 155.314 15.68 156.594 16.78C157.894 17.88 158.544 19.32 158.544 21.1C158.544 21.7 158.464 22.37 158.304 23.11C157.924 24.75 157.214 26.19 156.174 27.43C155.134 28.65 153.854 29.6 152.334 30.28C150.834 30.94 149.204 31.27 147.444 31.27C144.664 31.27 142.604 30.72 141.264 29.62C139.944 28.5 139.284 27.02 139.284 25.18C139.284 24.56 139.364 23.87 139.524 23.11C139.904 21.55 140.624 20.17 141.684 18.97C142.764 17.75 144.074 16.81 145.614 16.15C147.174 15.47 148.834 15.13 150.594 15.13ZM150.504 17.8C150.084 17.8 149.634 18.18 149.154 18.94C148.694 19.68 148.144 21.09 147.504 23.17C146.864 25.25 146.544 26.71 146.544 27.55C146.544 27.99 146.614 28.29 146.754 28.45C146.894 28.59 147.084 28.66 147.324 28.66C147.744 28.7 148.174 28.34 148.614 27.58C149.074 26.82 149.644 25.34 150.324 23.14C150.944 21.2 151.254 19.79 151.254 18.91C151.254 18.49 151.184 18.2 151.044 18.04C150.924 17.88 150.744 17.8 150.504 17.8ZM175.442 26.68C175.402 26.84 175.382 26.95 175.382 27.01C175.382 27.15 175.422 27.26 175.502 27.34C175.582 27.42 175.682 27.46 175.802 27.46C176.042 27.46 176.242 27.36 176.402 27.16C176.582 26.94 176.702 26.83 176.762 26.83C176.862 26.83 176.942 26.9 177.002 27.04C177.062 27.18 177.092 27.34 177.092 27.52C177.112 28.06 176.902 28.61 176.462 29.17C176.042 29.73 175.472 30.19 174.752 30.55C174.032 30.91 173.252 31.09 172.412 31.09C171.412 31.09 170.542 30.9 169.802 30.52C169.062 30.14 168.552 29.64 168.272 29.02C167.732 29.72 167.112 30.24 166.412 30.58C165.712 30.92 164.972 31.09 164.192 31.09C163.272 31.09 162.412 30.86 161.612 30.4C160.832 29.94 160.202 29.29 159.722 28.45C159.262 27.59 159.032 26.62 159.032 25.54C159.032 23.72 159.372 22.01 160.052 20.41C160.752 18.79 161.722 17.49 162.962 16.51C164.202 15.51 165.612 15.01 167.192 15.01C168.052 15.01 168.782 15.11 169.382 15.31C170.002 15.51 170.562 15.81 171.062 16.21L172.082 12.85C172.142 12.67 172.172 12.52 172.172 12.4C172.172 12.18 172.112 12 171.992 11.86C171.892 11.72 171.752 11.58 171.572 11.44C171.372 11.28 171.222 11.14 171.122 11.02C171.042 10.9 171.032 10.74 171.092 10.54C171.212 10.08 171.842 9.68 172.982 9.34C174.122 9 175.312 8.83 176.552 8.83C177.712 8.83 178.562 9.05 179.102 9.49C179.662 9.93 179.942 10.53 179.942 11.29C179.942 11.73 179.872 12.16 179.732 12.58L175.442 26.68ZM170.432 18.25C170.112 17.97 169.762 17.83 169.382 17.83C168.802 17.83 168.232 18.26 167.672 19.12C167.112 19.98 166.662 21.02 166.322 22.24C165.982 23.46 165.822 24.56 165.842 25.54C165.842 26.64 166.202 27.19 166.922 27.19C167.182 27.19 167.402 27.09 167.582 26.89C167.762 26.67 167.932 26.32 168.092 25.84L170.432 18.25Z" fill="#101010"/>
</svg>
